<svg width="22" height="21" viewBox="0 0 22 21" fill="none" xmlns="http://www.w3.org/2000/svg">
<path d="M15.0226 12.6245C15.0226 10.5003 13.7428 9.77194 11.1831 9.46852C9.35469 9.22569 8.98901 8.74019 8.98901 7.89038C8.98901 7.04057 9.59852 6.49446 10.8174 6.49446C11.9144 6.49446 12.5239 6.85863 12.8286 7.76904C12.8896 7.95112 13.0724 8.07246 13.2553 8.07246H14.2303C14.4741 8.07246 14.657 7.89038 14.657 7.6477V7.58696C14.4131 6.25164 13.3161 5.21989 11.9144 5.09855V3.6419C11.9144 3.39907 11.7316 3.21699 11.4269 3.15625H10.5127C10.2689 3.15625 10.086 3.33833 10.025 3.6419V5.03781C8.19667 5.28063 7.03879 6.49446 7.03879 8.01186C7.03879 10.0148 8.25766 10.8037 10.8174 11.1073C12.5239 11.4107 13.0724 11.7748 13.0724 12.746C13.0724 13.7171 12.2191 14.3847 11.0612 14.3847C9.47653 14.3847 8.92802 13.717 8.74518 12.8066C8.68433 12.5639 8.50149 12.4424 8.31866 12.4424H7.28248C7.0388 12.4424 6.85596 12.6245 6.85596 12.8673V12.9281C7.09964 14.4453 8.07483 15.5378 10.086 15.8414V17.298C10.086 17.5407 10.2689 17.7228 10.5736 17.7835H11.4877C11.7316 17.7835 11.9144 17.6015 11.9754 17.298V15.8414C13.8038 15.5378 15.0226 14.2632 15.0226 12.6245Z" fill="white"/>
<path d="M7.89176 18.9971C3.13799 17.2978 0.700112 12.0174 2.46764 7.34387C3.38182 4.79472 5.39304 2.85257 7.89176 1.94216C8.1356 1.82082 8.25744 1.63874 8.25744 1.33517V0.485503C8.25744 0.242678 8.1356 0.0605968 7.89176 0C7.83077 0 7.70893 -3.88969e-07 7.64793 0.0605964C1.85813 1.88141 -1.3111 8.0116 0.517274 13.7775C1.6143 17.1763 4.23502 19.7862 7.64793 20.8787C7.89176 21 8.1356 20.8787 8.19644 20.6358C8.25744 20.5752 8.25744 20.5145 8.25744 20.3932V19.5433C8.25744 19.3613 8.0746 19.1186 7.89176 18.9971ZM14.3521 0.0605964C14.1082 -0.0607429 13.8644 0.0605966 13.8036 0.303421C13.7426 0.364163 13.7426 0.42476 13.7426 0.546245V1.39591C13.7426 1.63874 13.9254 1.88141 14.1082 2.0029C18.862 3.70223 21.2999 8.9826 19.5324 13.6561C18.6182 16.2053 16.607 18.1474 14.1082 19.0578C13.8644 19.1792 13.7426 19.3613 13.7426 19.6648V20.5145C13.7426 20.7573 13.8644 20.9394 14.1082 21C14.1692 21 14.2911 21 14.3521 20.9394C20.1419 19.1186 23.3111 12.9884 21.4827 7.22253C20.3857 3.76297 17.704 1.15309 14.3521 0.0605964Z" fill="white"/>
</svg>
