<svg width="20" height="17" viewBox="0 0 20 17" fill="none" xmlns="http://www.w3.org/2000/svg">
<path fill-rule="evenodd" clip-rule="evenodd" d="M3.66181 0.0834941L0.0149929 7.56818C0.0011157 7.59602 -0.0032819 7.62746 0.00244321 7.65792C0.00816833 7.68837 0.0237158 7.71624 0.046812 7.73745L9.896 16.9592C9.92397 16.9854 9.96124 17 10 17C10.0388 17 10.076 16.9854 10.104 16.9592L19.9532 7.73802C19.9763 7.71682 19.9918 7.68895 19.9976 7.65849C20.0033 7.62804 19.9989 7.59659 19.985 7.56875L16.3382 0.0840699C16.3264 0.0589332 16.3075 0.0376391 16.2837 0.0227328C16.2598 0.00782648 16.2321 -6.16616e-05 16.2038 1.1142e-05H3.79734C3.76891 -0.000334398 3.74099 0.00736373 3.71695 0.0221769C3.6929 0.03699 3.67375 0.0582854 3.66181 0.0834941Z" fill="white"/>
<path opacity="0.9" fill-rule="evenodd" clip-rule="evenodd" d="M11.2654 8.33697C11.1947 8.34215 10.8294 8.36345 10.0145 8.36345C9.36631 8.36345 8.90611 8.34445 8.74466 8.33697C6.23979 8.22931 4.37012 7.80325 4.37012 7.29314C4.37012 6.78303 6.23979 6.35756 8.74466 6.24817V7.91265C8.90846 7.92416 9.3775 7.95122 10.0257 7.95122C10.8035 7.95122 11.193 7.91956 11.2631 7.91322V6.24932C13.7626 6.35813 15.6282 6.78419 15.6282 7.29314C15.6282 7.8021 13.7632 8.22815 11.2631 8.33639L11.2654 8.33697ZM11.2654 6.07717V4.58772H14.7537V2.31641H5.25634V4.58772H8.74407V6.0766C5.90922 6.20384 3.77734 6.75252 3.77734 7.41002C3.77734 8.06752 5.90922 8.61563 8.74407 8.74345V13.5164H11.2648V8.74172C14.0932 8.61448 16.2215 8.06637 16.2215 7.40945C16.2215 6.75252 14.095 6.20441 11.2648 6.0766L11.2654 6.07717Z" fill="#0A0B0D"/>
</svg>
