<svg width="22" height="22" viewBox="0 0 22 22" fill="none" xmlns="http://www.w3.org/2000/svg">
<path d="M17.9388 4.61712L17.3347 5.22119C18.7761 6.79745 19.5754 8.85607 19.5754 10.992C19.5754 13.1279 18.7761 15.1866 17.3347 16.7628L17.9388 17.3669C19.5418 15.6282 20.4317 13.3499 20.4317 10.985C20.4317 8.62006 19.5418 6.34176 17.9388 4.60303V4.61712Z" fill="white"/>
<path d="M5.2351 4.66927C6.81137 3.22788 8.86998 2.42855 11.0059 2.42855C13.1419 2.42855 15.2005 3.22788 16.7767 4.66927L17.3808 4.06521C15.6421 2.46223 13.3638 1.57227 10.9989 1.57227C8.63397 1.57227 6.35568 2.46223 4.61694 4.06521L5.2351 4.66927Z" fill="white"/>
<path d="M4.66927 16.7691C3.22959 15.1931 2.43131 13.1358 2.43131 11.0013C2.43131 8.86673 3.22959 6.80937 4.66927 5.23346L4.06521 4.62939C2.46223 6.36813 1.57227 8.64643 1.57227 11.0113C1.57227 13.3762 2.46223 15.6545 4.06521 17.3933L4.66927 16.7691Z" fill="white"/>
<path d="M16.7688 17.3267C15.1925 18.7681 13.1339 19.5674 10.9979 19.5674C8.86199 19.5674 6.80338 18.7681 5.22711 17.3267L4.62305 17.9307C6.36178 19.5337 8.64008 20.4237 11.005 20.4237C13.3699 20.4237 15.6482 19.5337 17.3869 17.9307L16.7688 17.3267Z" fill="white"/>
<path d="M14.8136 8.98439C14.6928 7.72391 13.6054 7.30107 12.2302 7.1722V5.43652H11.167V7.13998C10.8872 7.13998 10.6012 7.13998 10.3173 7.13998V5.43652H9.26222V7.18428H7.10571V8.32193C7.10571 8.32193 7.891 8.30784 7.87891 8.32193C8.02051 8.30636 8.16262 8.34635 8.2753 8.4335C8.38798 8.52064 8.46244 8.64812 8.48298 8.78908V13.5733C8.47995 13.623 8.46699 13.6716 8.44485 13.7162C8.42272 13.7608 8.39186 13.8005 8.35411 13.833C8.31707 13.8661 8.27371 13.8914 8.22665 13.9073C8.17959 13.9232 8.1298 13.9294 8.08027 13.9256C8.09436 13.9377 7.30707 13.9256 7.30707 13.9256L7.10571 15.1962H9.24209V16.9721H10.3052V15.2224H11.155V16.9641H12.2201V15.2083C14.0162 15.0995 15.2686 14.6565 15.4257 12.9752C15.5525 11.6221 14.9163 11.0181 13.8994 10.7744C14.5176 10.4704 14.9001 9.90659 14.8136 8.98439ZM13.3235 12.7658C13.3235 14.0867 11.0603 13.9357 10.3395 13.9357V11.5919C11.0603 11.5939 13.3235 11.3865 13.3235 12.7658ZM12.8302 9.46361C12.8302 10.6717 10.9415 10.5248 10.3415 10.5248V8.39442C10.9415 8.39442 12.8302 8.20515 12.8302 9.46361Z" fill="white"/>
<path d="M10.998 22C8.82257 21.9996 6.69611 21.3542 4.88748 20.1453C3.07884 18.9365 1.66926 17.2185 0.836945 15.2086C0.00463043 13.1987 -0.213036 10.9871 0.211465 8.85352C0.635967 6.71991 1.68357 4.76009 3.22183 3.22183C4.76009 1.68357 6.71991 0.635967 8.85352 0.211465C10.9871 -0.213036 13.1987 0.00463043 15.2086 0.836945C17.2185 1.66926 18.9365 3.07884 20.1453 4.88748C21.3542 6.69611 21.9996 8.82257 22 10.998C22.0003 12.4429 21.7159 13.8736 21.1631 15.2086C20.6103 16.5435 19.7999 17.7565 18.7782 18.7782C17.7565 19.7999 16.5435 20.6103 15.2086 21.1631C13.8736 21.7159 12.4429 22.0003 10.998 22ZM10.998 0.857775C8.99376 0.859368 7.03498 1.4551 5.36924 2.56966C3.7035 3.68423 2.40557 5.26761 1.6395 7.11966C0.873436 8.97171 0.673619 11.0093 1.06531 12.9749C1.457 14.9405 2.42261 16.7458 3.8401 18.1627C5.25759 19.5797 7.06332 20.5446 9.02906 20.9355C10.9948 21.3264 13.0323 21.1258 14.8841 20.359C16.7358 19.5922 18.3187 18.2936 19.4326 16.6274C20.5465 14.9612 21.1414 13.0022 21.1422 10.998C21.1428 9.66587 20.8807 8.34671 20.371 7.11594C19.8614 5.88517 19.1141 4.76693 18.172 3.82517C17.2298 2.8834 16.1113 2.13659 14.8803 1.62742C13.6494 1.11825 12.3301 0.856717 10.998 0.857775Z" fill="white"/>
</svg>
