<svg width="22" height="27" viewBox="0 0 22 27" fill="none" xmlns="http://www.w3.org/2000/svg">
<path d="M8.62533 6.14127C8.3509 6.0995 8.33783 6.08557 8.46851 6.07165C8.71681 6.02988 9.2918 6.08558 9.69691 6.18305C10.6378 6.41977 11.4872 7.03246 12.3889 8.10466L12.6242 8.39708L12.9639 8.34138C14.4145 8.09073 15.9043 8.28568 17.1457 8.89837C17.4855 9.06546 18.0213 9.39966 18.0866 9.4832C18.1128 9.51105 18.152 9.69208 18.1781 9.8731C18.2696 10.5276 18.2304 11.0149 18.0344 11.3909C17.9298 11.5998 17.9298 11.6555 17.9952 11.8365C18.0474 11.9757 18.2042 12.0732 18.348 12.0732C18.6616 12.0732 18.9883 11.5441 19.1452 10.8061L19.2105 10.5136L19.3281 10.6529C19.9946 11.4466 20.5173 12.5466 20.5957 13.3264L20.6218 13.5353L20.5042 13.3543C20.3082 13.034 20.1253 12.8251 19.877 12.6441C19.4326 12.3238 18.9622 12.2264 17.7207 12.1567C16.5969 12.0871 15.9565 11.9897 15.3293 11.7669C14.2577 11.3909 13.7088 10.9035 12.4412 9.10724C11.8793 8.31353 11.5264 7.88186 11.1736 7.51982C10.4026 6.72611 9.63157 6.30837 8.62533 6.14127Z" fill="#FF31D2"/>
<path d="M18.3611 7.90885C18.3873 7.37972 18.4526 7.0316 18.5964 6.71133C18.6486 6.58601 18.7009 6.47461 18.714 6.47461C18.727 6.47461 18.7009 6.57208 18.6617 6.68348C18.5572 6.98982 18.5441 7.42149 18.6094 7.90885C18.7009 8.53547 18.7401 8.61902 19.3674 9.30133C19.6549 9.62159 19.9947 10.0254 20.1253 10.1925L20.3475 10.4989L20.1253 10.2761C19.8509 9.99756 19.2236 9.46842 19.0799 9.3988C18.9884 9.3431 18.9753 9.3431 18.91 9.41272C18.8577 9.46842 18.8447 9.55197 18.8447 9.95579C18.8316 10.5824 18.7532 10.9723 18.5572 11.3761C18.4526 11.585 18.4396 11.5432 18.531 11.3065C18.5964 11.1255 18.6094 11.0419 18.6094 10.4432C18.6094 9.2317 18.4788 8.93928 17.6816 8.45192C17.4856 8.3266 17.1458 8.14557 16.9498 8.0481C16.7407 7.95063 16.5839 7.86708 16.597 7.86708C16.6231 7.83923 17.3941 8.07595 17.6947 8.2152C18.1521 8.41014 18.2305 8.42407 18.2827 8.41014C18.3219 8.36837 18.3481 8.25697 18.3611 7.90885Z" fill="#FF31D2"/>
<path d="M9.16131 9.98447C8.61245 9.17684 8.25962 7.92362 8.33802 6.99066L8.36416 6.69824L8.49484 6.72609C8.73007 6.76787 9.13518 6.93496 9.3312 7.06029C9.85392 7.39448 10.0892 7.85399 10.3113 8.99582C10.3766 9.33001 10.4681 9.7199 10.5073 9.84523C10.5727 10.0541 10.821 10.5415 11.0301 10.8478C11.1738 11.0706 11.0823 11.182 10.7556 11.1542C10.259 11.0985 9.59256 10.6111 9.16131 9.98447Z" fill="#FF31D2"/>
<path d="M17.6946 16.0409C15.1071 14.9269 14.1924 13.9661 14.1924 12.3369C14.1924 12.1002 14.2055 11.9053 14.2055 11.9053C14.2185 11.9053 14.31 11.9888 14.4276 12.0863C14.9503 12.5319 15.5384 12.7268 17.1719 12.9775C18.1259 13.1306 18.6747 13.242 19.1713 13.4231C20.7526 13.9801 21.7327 15.1219 21.9679 16.6675C22.0332 17.1131 21.994 17.9625 21.8895 18.4081C21.798 18.7562 21.5367 19.3968 21.4713 19.4107C21.4582 19.4107 21.4321 19.3411 21.4321 19.2297C21.406 18.6448 21.1315 18.0878 20.6742 17.6562C20.1253 17.1549 19.4196 16.7789 17.6946 16.0409Z" fill="#FF31D2"/>
<path d="M15.8652 16.5007C15.8391 16.2919 15.7737 16.0273 15.7345 15.9159L15.6692 15.707L15.7868 15.8602C15.9567 16.0691 16.0874 16.3197 16.205 16.6678C16.2965 16.9324 16.2964 17.016 16.2964 17.4476C16.2964 17.8654 16.2834 17.9628 16.205 18.1996C16.0743 18.5755 15.9175 18.8401 15.6561 19.1325C15.1857 19.6477 14.5715 19.9262 13.6959 20.0515C13.5391 20.0655 13.0948 20.1072 12.7027 20.1351C11.7226 20.1908 11.0692 20.3022 10.4811 20.525C10.4027 20.5528 10.3243 20.5807 10.3113 20.5668C10.2851 20.5389 10.6902 20.2883 11.0169 20.1212C11.4743 19.8844 11.9448 19.7591 12.9772 19.5642C13.4868 19.4806 14.0095 19.3692 14.1402 19.3135C15.434 18.8819 16.0743 17.8097 15.8652 16.5007Z" fill="#FF31D2"/>
<path d="M17.0544 18.7427C16.7147 17.949 16.6362 17.1971 16.8192 16.4869C16.8453 16.4173 16.8715 16.3477 16.8976 16.3477C16.9237 16.3477 17.0021 16.3894 17.0806 16.4451C17.2374 16.5565 17.5641 16.7515 18.4004 17.2388C19.459 17.8515 20.0601 18.325 20.4783 18.868C20.8442 19.3415 21.0663 19.8845 21.1709 20.5529C21.2362 20.9289 21.197 21.834 21.1055 22.21C20.818 23.3936 20.1646 24.3404 19.2107 24.8835C19.0669 24.967 18.9493 25.0227 18.9362 25.0227C18.9232 25.0227 18.9754 24.8835 19.0538 24.7164C19.3675 24.0062 19.4067 23.3239 19.1715 22.5581C19.0277 22.0846 18.7271 21.5137 18.126 20.5529C17.4073 19.4389 17.2374 19.1465 17.0544 18.7427Z" fill="#FF31D2"/>
<path d="M7.31886 23.0039C8.2859 22.1405 9.4751 21.5279 10.5728 21.3329C11.0433 21.2494 11.8274 21.2772 12.2586 21.4025C12.9512 21.5975 13.5785 22.0152 13.9052 22.5304C14.2188 23.0317 14.3626 23.4634 14.5063 24.4242C14.5586 24.8002 14.6239 25.1901 14.637 25.2736C14.7415 25.7749 14.9506 26.1648 15.212 26.3737C15.6171 26.6939 16.3228 26.7078 17.0154 26.4294C17.133 26.3876 17.2375 26.3458 17.2375 26.3597C17.2637 26.3876 16.9108 26.6382 16.6756 26.7635C16.3489 26.9446 16.0876 27.0003 15.7347 27.0003C15.1074 27.0003 14.5717 26.6521 14.1404 25.9559C14.0489 25.8167 13.866 25.4129 13.7092 25.0369C13.2518 23.909 13.0166 23.5748 12.4808 23.1988C12.0103 22.8786 11.4092 22.8089 10.9518 23.0457C10.3507 23.352 10.1938 24.1736 10.612 24.6748C10.7819 24.8837 11.0955 25.0508 11.3569 25.0926C11.8404 25.1622 12.2586 24.7584 12.2586 24.2432C12.2586 23.909 12.141 23.714 11.8274 23.5609C11.4092 23.3659 10.9518 23.5887 10.9649 24.0204C10.9649 24.2014 11.0433 24.3128 11.2132 24.3963C11.3177 24.452 11.3177 24.452 11.2393 24.4381C10.8603 24.3546 10.7688 23.8533 11.0694 23.533C11.4353 23.1431 12.2063 23.3102 12.4677 23.8533C12.5722 24.0761 12.5853 24.5217 12.4938 24.8002C12.2717 25.4129 11.6444 25.7331 11.0041 25.5521C10.5728 25.4268 10.3899 25.3015 9.86714 24.7305C8.95238 23.728 8.59954 23.533 7.29273 23.3241L7.04443 23.2824L7.31886 23.0039Z" fill="#FF31D2"/>
<path fill-rule="evenodd" clip-rule="evenodd" d="M0.444897 0.598763C3.48976 4.53946 8.18121 10.6663 8.41644 11.0005C8.61246 11.279 8.53405 11.5436 8.20735 11.7385C8.02439 11.8499 7.64542 11.9613 7.46246 11.9613C7.25337 11.9613 7.00508 11.8499 6.8352 11.6689C6.71758 11.5436 6.20793 10.7499 5.05793 8.84219C4.18237 7.3801 3.43749 6.16865 3.42442 6.15472C3.37215 6.12687 3.37215 6.12687 4.96646 9.16246C5.9727 11.0701 6.2994 11.7525 6.2994 11.836C6.2994 12.017 6.24713 12.1145 6.03804 12.3651C5.6852 12.7829 5.52839 13.2563 5.41077 14.245C5.28009 15.345 4.92725 16.1248 3.92101 17.4477C3.33295 18.2274 3.24147 18.3667 3.09772 18.687C2.91477 19.0769 2.86249 19.2996 2.83636 19.8009C2.81022 20.3301 2.86249 20.6643 3.00624 21.1656C3.13692 21.6112 3.28067 21.9036 3.63351 22.4745C3.93408 22.9758 4.11703 23.3517 4.11703 23.491C4.11703 23.6024 4.14317 23.6024 4.61362 23.491C5.73748 23.2125 6.66531 22.7391 7.17497 22.1542C7.4886 21.7922 7.56701 21.5972 7.56701 21.0959C7.56701 20.7757 7.55394 20.706 7.47553 20.5111C7.34485 20.2048 7.09656 19.9541 6.56077 19.5642C5.85509 19.049 5.55452 18.6313 5.47611 18.0743C5.41077 17.6008 5.48918 17.2806 5.88122 16.4033C6.28634 15.4982 6.39088 15.1222 6.45622 14.2032C6.49543 13.6184 6.56077 13.3816 6.71758 13.2006C6.88747 13.0057 7.03122 12.9361 7.43633 12.8804C8.1028 12.7829 8.53405 12.6019 8.87382 12.2537C9.17439 11.9613 9.30507 11.6689 9.31813 11.2372L9.3312 10.917L9.16132 10.722C8.54712 9.97009 0.0397856 0 0.000581275 0C-0.0124868 0 0.196603 0.26457 0.444897 0.598763ZM4.4568 20.3997C4.60055 20.1351 4.52214 19.8009 4.28692 19.6338C4.06476 19.4807 3.72499 19.5503 3.72499 19.7592C3.72499 19.8149 3.75112 19.8706 3.82953 19.8984C3.94715 19.968 3.96021 20.0377 3.86874 20.1908C3.77726 20.344 3.77726 20.4832 3.89487 20.5807C4.07783 20.7339 4.32612 20.6503 4.4568 20.3997Z" fill="#FF31D2"/>
<path fill-rule="evenodd" clip-rule="evenodd" d="M9.74941 13.0751C9.43577 13.1725 9.13521 13.5346 9.04373 13.8966C8.99146 14.1194 9.0176 14.5232 9.10907 14.6485C9.25282 14.8435 9.3835 14.8992 9.74941 14.8992C10.4682 14.8992 11.0824 14.565 11.1477 14.1612C11.213 13.827 10.9386 13.3675 10.5596 13.1586C10.3636 13.0472 9.9585 13.0054 9.74941 13.0751ZM10.5858 13.7713C10.6903 13.6042 10.6511 13.4232 10.4551 13.2978C10.1022 13.0611 9.56646 13.2561 9.56646 13.6181C9.56646 13.7991 9.84089 13.9941 10.1022 13.9941C10.2721 13.9941 10.5074 13.8827 10.5858 13.7713Z" fill="#FF31D2"/>
</svg>
